<svg id="visual" viewBox="0 0 900 600" width="900" height="600" xmlns="http://www.w3.org/2000/svg" xmlns:xlink="http://www.w3.org/1999/xlink" version="1.1"><path d="M0 317L21.5 317.7C43 318.3 86 319.7 128.8 331.8C171.7 344 214.3 367 257.2 377.8C300 388.7 343 387.3 385.8 370.8C428.7 354.3 471.3 322.7 514.2 307.2C557 291.7 600 292.3 642.8 311.5C685.7 330.7 728.3 368.3 771.2 379.7C814 391 857 376 878.5 368.5L900 361L900 0L878.5 0C857 0 814 0 771.2 0C728.3 0 685.7 0 642.8 0C600 0 557 0 514.2 0C471.3 0 428.7 0 385.8 0C343 0 300 0 257.2 0C214.3 0 171.7 0 128.8 0C86 0 43 0 21.5 0L0 0Z" fill="#ffc244" stroke-linecap="round" stroke-linejoin="miter"></path></svg>